<svg width="40" height="40" viewBox="0 0 40 40" fill="none" xmlns="http://www.w3.org/2000/svg">
<path d="M8.33331 30.8333C8.33331 33.6966 14.8133 35 20.8333 35C26.8533 35 33.3333 33.6966 33.3333 30.8333C33.3333 28.56 29.3983 27.5333 26.5633 27.09L28.5 25.1666C30.0151 23.6516 31.047 21.7213 31.4651 19.6198C31.8832 17.5183 31.6687 15.3401 30.8488 13.3605C30.0288 11.3809 28.6403 9.6889 26.8588 8.49848C25.0772 7.30806 22.9826 6.67267 20.84 6.67267C18.6973 6.67267 16.6028 7.30806 14.8212 8.49848C13.0397 9.6889 11.6511 11.3809 10.8312 13.3605C10.0113 15.3401 9.79679 17.5183 10.2149 19.6198C10.633 21.7213 11.6648 23.6516 13.18 25.1666L15.11 27.0966C12.2683 27.5333 8.33331 28.56 8.33331 30.8333ZM22.5 13.3333C22.5 13.1786 22.5431 13.0269 22.6244 12.8952C22.7058 12.7636 22.8222 12.6572 22.9606 12.588C23.0991 12.5187 23.254 12.4895 23.4082 12.5033C23.5623 12.5172 23.7095 12.5738 23.8333 12.6666C24.8652 13.4409 25.7221 14.4242 26.3479 15.5523C26.9738 16.6805 27.3544 17.928 27.465 19.2133C27.5016 19.6082 27.3952 20.003 27.1651 20.3261C26.9351 20.6491 26.5968 20.8788 26.2116 20.9733L24.1666 21.485V23.3333C24.1666 23.5543 24.0788 23.7663 23.9226 23.9226C23.7663 24.0788 23.5543 24.1666 23.3333 24.1666C23.1123 24.1666 22.9003 24.0788 22.7441 23.9226C22.5878 23.7663 22.5 23.5543 22.5 23.3333V13.3333ZM15 15V13.3333C15 13.1123 15.0878 12.9003 15.2441 12.7441C15.4003 12.5878 15.6123 12.5 15.8333 12.5C16.0543 12.5 16.2663 12.5878 16.4226 12.7441C16.5788 12.9003 16.6666 13.1123 16.6666 13.3333V15C16.67 15.2874 16.7487 15.5689 16.8949 15.8163C17.0412 16.0638 17.2498 16.2685 17.5 16.41V13.3333C17.5 13.1123 17.5878 12.9003 17.7441 12.7441C17.9003 12.5878 18.1123 12.5 18.3333 12.5C18.5543 12.5 18.7663 12.5878 18.9226 12.7441C19.0788 12.9003 19.1666 13.1123 19.1666 13.3333V16.41C19.4168 16.2685 19.6255 16.0638 19.7717 15.8163C19.918 15.5689 19.9967 15.2874 20 15V13.3333C20 13.1123 20.0878 12.9003 20.2441 12.7441C20.4003 12.5878 20.6123 12.5 20.8333 12.5C21.0543 12.5 21.2663 12.5878 21.4226 12.7441C21.5788 12.9003 21.6666 13.1123 21.6666 13.3333V15C21.6639 15.7368 21.4171 16.452 20.9647 17.0337C20.5124 17.6154 19.8801 18.0308 19.1666 18.215V23.3333C19.1666 23.5543 19.0788 23.7663 18.9226 23.9226C18.7663 24.0788 18.5543 24.1666 18.3333 24.1666C18.1123 24.1666 17.9003 24.0788 17.7441 23.9226C17.5878 23.7663 17.5 23.5543 17.5 23.3333V18.215C16.7865 18.0308 16.1542 17.6154 15.7019 17.0337C15.2496 16.452 15.0027 15.7368 15 15ZM16.59 28.5766L19.065 31.0533C19.2971 31.2856 19.5728 31.4699 19.8762 31.5957C20.1797 31.7214 20.5049 31.7861 20.8333 31.7861C21.1618 31.7861 21.487 31.7214 21.7904 31.5957C22.0938 31.4699 22.3695 31.2856 22.6016 31.0533L25.0766 28.5766C29.6566 29.1066 31.6666 30.3133 31.6666 30.8333C31.6666 31.58 27.9816 33.3333 20.8333 33.3333C13.685 33.3333 9.99998 31.58 9.99998 30.8333C9.99998 30.3133 12.01 29.1066 16.59 28.5766Z" fill="white"/>
</svg>
