<svg width="40" height="40" viewBox="0 0 40 40" fill="none" xmlns="http://www.w3.org/2000/svg">
<path d="M34.5817 20L36.4217 16.82C36.6428 16.4374 36.7029 15.9827 36.5889 15.5557C36.4748 15.1288 36.1958 14.7646 35.8133 14.5433L32.63 12.7033V9.03668C32.63 8.59465 32.4544 8.17073 32.1418 7.85817C31.8293 7.54561 31.4054 7.37001 30.9633 7.37001H27.2983L25.46 4.18835C25.238 3.80654 24.8745 3.52752 24.4483 3.41168C24.2369 3.35437 24.0163 3.3396 23.7991 3.36821C23.582 3.39682 23.3727 3.46824 23.1833 3.57835L20 5.41835L16.8167 3.57668C16.4339 3.35568 15.979 3.29579 15.552 3.41018C15.125 3.52458 14.761 3.80389 14.54 4.18668L12.7 7.37001H9.035C8.59297 7.37001 8.16905 7.54561 7.85649 7.85817C7.54393 8.17073 7.36833 8.59465 7.36833 9.03668V12.7017L4.185 14.5417C3.99505 14.6509 3.82857 14.7967 3.69511 14.9705C3.56164 15.1442 3.46384 15.3427 3.40731 15.5544C3.35078 15.7661 3.33664 15.9869 3.36571 16.2041C3.39477 16.4213 3.46646 16.6306 3.57666 16.82L5.41666 20L3.57666 23.18C3.35665 23.563 3.29695 24.0174 3.41059 24.4442C3.52424 24.871 3.802 25.2355 4.18333 25.4583L7.36666 27.2983V30.9633C7.36666 31.4054 7.54226 31.8293 7.85482 32.1419C8.16738 32.4544 8.5913 32.63 9.03333 32.63H12.7L14.54 35.8134C14.6875 36.0656 14.8982 36.2751 15.1513 36.4212C15.4044 36.5673 15.6911 36.645 15.9833 36.6467C16.2733 36.6467 16.5617 36.57 16.8183 36.4217L19.9983 34.5817L23.1817 36.4217C23.5644 36.6424 24.019 36.7023 24.4458 36.5882C24.8726 36.4742 25.2367 36.1955 25.4583 35.8134L27.2967 32.63H30.9617C31.4037 32.63 31.8276 32.4544 32.1402 32.1419C32.4527 31.8293 32.6283 31.4054 32.6283 30.9633V27.2983L35.8117 25.4583C36.0013 25.3488 36.1674 25.2029 36.3007 25.0291C36.4339 24.8552 36.5315 24.6568 36.588 24.4453C36.6445 24.2337 36.6587 24.013 36.6299 23.7959C36.6011 23.5788 36.5298 23.3695 36.42 23.18L34.5817 20ZM15.8317 11.65C16.4949 11.6502 17.1309 11.9139 17.5998 12.3831C18.0686 12.8522 18.3319 13.4884 18.3317 14.1517C18.3314 14.8149 18.0678 15.451 17.5986 15.9198C17.1294 16.3886 16.4933 16.6519 15.83 16.6517C15.1667 16.6515 14.5307 16.3878 14.0619 15.9186C13.593 15.4495 13.3298 14.8133 13.33 14.15C13.3302 13.4868 13.5939 12.8507 14.0631 12.3819C14.5322 11.9131 15.1684 11.6498 15.8317 11.65ZM16.3317 27.65L13.665 25.6517L23.665 12.3183L26.3317 14.3167L16.3317 27.65ZM24.165 28.3167C23.8366 28.3166 23.5114 28.2518 23.208 28.126C22.9047 28.0002 22.629 27.8159 22.3969 27.5836C22.1647 27.3513 21.9806 27.0756 21.855 26.7721C21.7295 26.4687 21.6649 26.1434 21.665 25.815C21.6651 25.4866 21.7299 25.1614 21.8557 24.8581C21.9815 24.5547 22.1658 24.279 22.3981 24.0469C22.6304 23.8148 22.9061 23.6306 23.2096 23.5051C23.513 23.3795 23.8382 23.3149 24.1667 23.315C24.8299 23.3152 25.4659 23.5789 25.9348 24.0481C26.4036 24.5172 26.6669 25.1534 26.6667 25.8167C26.6664 26.4799 26.4028 27.116 25.9336 27.5848C25.4644 28.0536 24.8283 28.3169 24.165 28.3167Z" fill="#A098AE"/>
</svg>
